<?xml version="1.0" encoding="utf-8"?>
<!-- Generator: Adobe Illustrator 27.5.0, SVG Export Plug-In . SVG Version: 6.00 Build 0)  -->
<svg version="1.1" xmlns="http://www.w3.org/2000/svg" xmlns:xlink="http://www.w3.org/1999/xlink" x="0px" y="0px"
	 viewBox="0 0 750 500" style="enable-background:new 0 0 750 500;" xml:space="preserve">
<g id="BACKGROUND">
	<rect style="fill:#FFFFFF;" width="750" height="500"/>
</g>
<g id="OBJECTS">
	<g>
		<defs>
			<path id="SVGID_1_" d="M631.875,438.473c-10.591,7.556-397.802,6.774-445.716,6.774c-19.845,0-37.722,5.708-51.604-9.004
				c-14.48-15.346-25.811-37.534-36.494-55.656c-22.063-37.426-39.882-78.412-42.479-122.3c-0.996-16.826,0.503-34.544,9.403-48.858
				s26.837-24.031,42.949-19.083c15.326,4.706,29.305,21.386,43.949,14.862c9.854-4.389,12.583-16.802,14.392-27.436
				c6.78-39.851,19.237-80.792,48.045-109.149c28.808-28.357,77.802-39.405,110.299-15.364
				c17.927,13.263,28.07,34.473,35.604,55.462s13.317,42.96,25.41,61.696s32.373,34.132,54.646,33.046
				c19.554-0.953,36.26-14.049,50.269-27.725c14.009-13.676,27.439-28.974,45.53-36.459c18.09-7.484,42.72-3.901,51.694,13.499
				c7.81,15.141,1.049,33.307-4.739,49.331c-6.733,18.643-12.115,38.507-9.234,58.118c2.881,19.611,15.858,38.879,35.069,43.76
				c17.566,4.463,36.563-3.517,54.063,1.197c25.974,6.996,37.247,40.368,29.194,66.035c-8.053,25.666-29.559,44.599-51.195,60.584
				c-0.002,0.001-0.004,0.003-0.006,0.004C637.46,434.367,634.532,436.577,631.875,438.473z"/>
		</defs>
		<clipPath id="SVGID_00000033370992681769040310000003808299102625465248_">
			<use xlink:href="#SVGID_1_"  style="overflow:visible;"/>
		</clipPath>
		
			<linearGradient id="SVGID_00000021085276556666104480000002133419827787991484_" gradientUnits="userSpaceOnUse" x1="698.1194" y1="211.6123" x2="202.1195" y2="268.6119">
			<stop  offset="0.3955" style="stop-color:#FFDCEC"/>
			<stop  offset="0.5181" style="stop-color:#F6DBEF"/>
			<stop  offset="0.7144" style="stop-color:#DFD7F5"/>
			<stop  offset="0.9297" style="stop-color:#BED2FF"/>
		</linearGradient>
		
			<path style="clip-path:url(#SVGID_00000033370992681769040310000003808299102625465248_);fill:url(#SVGID_00000021085276556666104480000002133419827787991484_);" d="
			M631.875,438.473c-10.591,7.556-397.802,6.774-445.716,6.774c-19.845,0-37.722,5.708-51.604-9.004
			c-14.48-15.346-25.811-37.534-36.494-55.656c-22.063-37.426-39.882-78.412-42.479-122.3c-0.996-16.826,0.503-34.544,9.403-48.858
			s26.837-24.031,42.949-19.083c15.326,4.706,29.305,21.386,43.949,14.862c9.854-4.389,12.583-16.802,14.392-27.436
			c6.78-39.851,19.237-80.792,48.045-109.149c28.808-28.357,77.802-39.405,110.299-15.364c17.927,13.263,28.07,34.473,35.604,55.462
			s13.317,42.96,25.41,61.696s32.373,34.132,54.646,33.046c19.554-0.953,36.26-14.049,50.269-27.725
			c14.009-13.676,27.439-28.974,45.53-36.459c18.09-7.484,42.72-3.901,51.694,13.499c7.81,15.141,1.049,33.307-4.739,49.331
			c-6.733,18.643-12.115,38.507-9.234,58.118c2.881,19.611,15.858,38.879,35.069,43.76c17.566,4.463,36.563-3.517,54.063,1.197
			c25.974,6.996,37.247,40.368,29.194,66.035c-8.053,25.666-29.559,44.599-51.195,60.584c-0.002,0.001-0.004,0.003-0.006,0.004
			C637.46,434.367,634.532,436.577,631.875,438.473z"/>
		<path style="clip-path:url(#SVGID_00000033370992681769040310000003808299102625465248_);fill:#5237B5;" d="M248.931,444.758
			c-3.465-11.049-6.559-22.955-7.49-34.476c-0.945-11.695,0.93-23.982,7.494-33.707c5.627-8.338,14.412-14.447,18.74-23.528
			c5.882-12.341,1.981-27.47-5.824-38.694c-4.652-6.689-10.707-12.67-13.203-20.425c-1.574-4.891-1.599-10.158-1.015-15.263
			c2.178-19.036,12.505-36.724,12.691-55.884c0.174-17.909-10.266-35.494-22.11-48.208c-1.826-1.96-3.758-3.99-6.292-4.857
			c-2.534-0.866-5.838-0.117-6.944,2.322c-0.535,1.18-0.481,2.532-0.417,3.826c0.187,3.752,0.373,7.504,0.56,11.255
			c0.529,10.633-1.317,20.26-7.637,28.88c-6.195,8.449-14.096,16.057-17.28,26.314c-7.733,24.904,16.173,50.521,11.384,76.154
			c-1.32,7.065-4.756,13.522-7.351,20.224c-6.938,17.914-7.837,37.873-4.114,56.72c3.302,16.713,10.129,32.584,19.004,47.15
			C229.068,443.189,239.002,443.937,248.931,444.758z"/>
		<g style="clip-path:url(#SVGID_00000033370992681769040310000003808299102625465248_);">
			<g>
				<path style="fill:#B5C1FB;" d="M421.526,244.607c3.805,0.044,7.393,1.768,10.598,3.821c13.501,8.65,22.17,23.46,26.338,38.944
					c4.167,15.484,4.271,31.75,3.764,47.777c-0.209,6.606,1.047,31.342-8.949,25.556c-6.67-3.86-13.3-23.452-16.621-30.214
					c-6.561-13.36-11.205-27.661-13.765-42.323C422.273,284.63,418.526,244.572,421.526,244.607z"/>
				<path style="fill:#B5C1FB;" d="M473.673,371.363c14.612-22.524,34.929-41.315,58.523-54.127
					c0.633,9.08-3.305,17.876-8.183,25.56c-11.559,18.21-22.382,30.922-38.019,45.449c-4.451,4.135-23.162,16.424-24.425,14.318
					C457.571,395.901,469.969,377.072,473.673,371.363z"/>
				<g>
					<path style="fill:#31177A;" d="M449.078,485.353l-1.764-0.442c3.643-14.503,6.282-29.79,7.843-45.436
						c1.476-14.786,2.031-30.316,1.653-46.158c-0.356-14.858-1.544-30.426-3.533-46.268c-1.894-15.083-4.474-30.403-7.668-45.533
						c-2.541-12.037-6.331-27.731-13.136-42.358c-0.753-1.619-1.543-3.226-2.351-4.778l1.614-0.84
						c0.819,1.576,1.622,3.209,2.386,4.851c6.882,14.795,10.705,30.617,13.266,42.749c3.205,15.18,5.793,30.55,7.693,45.682
						c1.997,15.904,3.19,31.532,3.547,46.453c0.381,15.915-0.178,31.52-1.661,46.382
						C455.397,455.39,452.743,470.765,449.078,485.353z"/>
				</g>
				<g>
					<path style="fill:#31177A;" d="M457.357,421.581c-0.012,0-0.024,0-0.036-0.001c-0.502-0.02-0.893-0.441-0.874-0.943
						c0.386-10.016,5.563-21.694,15.387-34.71c14.043-18.606,28.564-37.846,48.394-51.181c0.417-0.281,0.982-0.169,1.262,0.248
						c0.281,0.417,0.17,0.982-0.247,1.262c-19.577,13.164-34.004,32.28-47.957,50.767c-9.596,12.713-14.65,24.046-15.022,33.683
						C458.247,421.197,457.844,421.581,457.357,421.581z"/>
				</g>
				<g>
					<path style="fill:#31177A;" d="M457.778,390.417c-0.12,0-0.242-0.024-0.359-0.074c-0.461-0.199-0.674-0.735-0.476-1.196
						c8.607-19.987,17.58-43.687,18.878-67.911c0.28-11.486-0.581-23.374-1.413-34.87c-0.411-5.672-0.835-11.537-1.114-17.257
						c-0.737-17.321-0.194-39.634,10.636-58.647l0.671-1.199l0.842,1.09c3.416,4.425,4.273,5.677,4.235,6.285
						c7.468,12.764,9.319,26.66,9.45,36.703c0.191,14.778-3.149,30.204-10.513,48.548c-3.579,8.915-7.15,17.653-11.489,26.533
						c-0.027,0.057-0.06,0.109-0.097,0.157c-2.492,21.963-10.603,43.148-18.414,61.288
						C458.465,390.211,458.13,390.417,457.778,390.417z M484.598,213.02c-9.718,18.247-10.192,39.439-9.487,56.007
						c0.277,5.693,0.701,11.548,1.111,17.209c0.836,11.539,1.699,23.471,1.416,35.072c-0.037,0.695-0.08,1.388-0.13,2.081
						c3.434-7.385,6.423-14.718,9.417-22.177c7.272-18.115,10.571-33.318,10.383-47.848c-0.13-9.994-1.999-23.889-9.614-36.503
						C487.024,216.163,485.526,214.528,484.598,213.02z"/>
				</g>
				<g>
					<path style="fill:#31177A;" d="M478.054,326.438l-1.809-0.197c0.388-3.572,1.176-8.334,2.01-13.375
						c0.986-5.962,2.006-12.128,2.358-16.394c1.152-13.947,1.993-28.106,2.498-42.086c0.507-13.978,0.692-28.161,0.553-42.157
						l1.819-0.018c0.14,14.023-0.047,28.235-0.554,42.241c-0.507,14.007-1.35,28.196-2.504,42.17
						c-0.358,4.341-1.384,10.544-2.377,16.542C479.221,318.178,478.437,322.916,478.054,326.438z"/>
				</g>
			</g>
			<path style="fill:#5237B5;" d="M178.456,473.362c-15.84-10.869-30.14-24.245-40.696-40.296
				c-10.555-16.051-17.249-34.875-17.579-54.083c-0.123-7.186,0.624-14.463-0.818-21.503c-5.231-25.547-37.032-40.257-39.262-66.239
				c-0.918-10.7,3.53-20.727,6.081-30.888c2.603-10.367,0.682-19.979-3.817-29.628c-1.588-3.404-3.175-6.809-4.763-10.213
				c-0.548-1.174-1.108-2.406-1.057-3.701c0.105-2.676,2.882-4.616,5.556-4.77c2.674-0.153,5.229,0.999,7.659,2.125
				c15.765,7.309,32.065,19.659,38.657,36.311c7.053,17.815,4.159,38.091,9.32,56.543c1.384,4.948,3.393,9.817,6.696,13.753
				c5.237,6.242,13.1,9.497,19.931,13.938c11.462,7.452,20.779,19.993,19.986,33.641c-0.584,10.042-6.417,19.013-8.484,28.858
				c-2.412,11.482,0.485,23.57,5.771,34.045c5.286,10.475,12.785,20.479,20.272,29.512L178.456,473.362z"/>
			<path style="fill:#FC5252;" d="M210.733,448.872c-23.388-22.766-36.71-54.29-42.871-86.341
				c-6.161-32.052-5.705-64.962-5.072-97.594c17.313,7.736,34.602,15.742,50.432,26.182c15.83,10.44,30.253,23.469,40.196,39.616
				c11.917,19.353,16.856,42.229,19,64.855c1.619,17.09,0.9,34.208-0.446,51.322L210.733,448.872z"/>
			<g>
				<path style="fill:#FF97D3;" d="M76.602,309.151c3.538-1.852,7.711-2.044,11.693-1.741c16.779,1.277,32.156,10.648,43.709,22.883
					c11.553,12.234,19.741,27.212,27.245,42.273c3.093,6.208,16.558,28.439,4.444,28.066c-8.083-0.249-23.955-15.054-30.388-19.65
					c-12.709-9.081-24.114-19.984-33.773-32.259C97.202,345.762,73.812,310.612,76.602,309.151z"/>
				<path style="fill:#F9C5E0;" d="M187.841,400.334c2.297-28.081,11.722-55.551,27.149-79.126
					c5.101,8.075,5.838,18.162,5.154,27.689c-1.622,22.576-5.299,39.706-12.521,60.908c-2.056,6.035-13.231,26.698-15.446,25.381
					C185.17,431.018,187.259,407.452,187.841,400.334z"/>
				<g>
					<path style="fill:#31177A;" d="M220.014,518.354c-3.848-15.213-9.014-30.653-15.357-45.891
						c-5.994-14.4-13.207-29.028-21.438-43.477c-7.72-13.552-16.563-27.346-26.283-40.998
						c-9.251-12.992-19.257-25.865-29.739-38.261c-8.337-9.859-19.647-22.476-33.215-32.61c-1.514-1.131-3.046-2.224-4.551-3.248
						l1.023-1.504c1.528,1.039,3.082,2.147,4.617,3.294c13.716,10.244,25.116,22.959,33.516,32.893
						c10.515,12.435,20.551,25.348,29.831,38.382c9.756,13.701,18.632,27.547,26.382,41.153
						c8.268,14.513,15.513,29.209,21.536,43.678c6.377,15.32,11.572,30.844,15.441,46.143L220.014,518.354z"/>
				</g>
				<g>
					<path style="fill:#31177A;" d="M197.509,454.897c-0.406,0.099-0.84-0.093-1.032-0.484c-4.621-9.438-5.645-22.795-3.044-39.7
						c3.719-24.175,7.565-49.173,19.251-71.351c0.234-0.445,0.784-0.615,1.229-0.381c0.444,0.234,0.615,0.784,0.381,1.228
						c-11.544,21.909-15.366,46.754-19.062,70.78c-2.544,16.53-1.574,29.526,2.88,38.624c0.221,0.451,0.035,0.996-0.417,1.216
						C197.634,454.859,197.571,454.881,197.509,454.897z"/>
				</g>
				<g>
					<path style="fill:#31177A;" d="M182.398,425.891c-0.045,0.011-0.091,0.018-0.138,0.023c-0.5,0.044-0.942-0.326-0.985-0.827
						c-1.991-22.755-5.49-49.122-16.344-72.158c-5.457-10.756-12.167-21.314-18.656-31.524c-3.2-5.035-6.509-10.242-9.612-15.387
						c-9.294-15.632-19.889-36.514-19.34-59.461l0.021-1.37l1.258,0.561c5.351,2.386,6.747,3.118,7.011,3.683
						c13.254,8.074,21.881,19.996,26.998,29.211c7.525,13.554,12.111,29.465,14.431,50.073c1.128,10.017,2.175,19.867,2.583,30.228
						c0.003,0.067-0.002,0.133-0.013,0.196c8.624,21.531,11.669,45.142,13.475,65.791
						C183.127,425.382,182.827,425.787,182.398,425.891z M119.122,248.52c0.076,21.735,10.196,41.585,19.102,56.563
						c3.089,5.122,6.392,10.32,9.587,15.347c6.512,10.246,13.245,20.842,18.755,31.7c0.345,0.733,0.684,1.47,1.015,2.209
						c-0.498-8.62-1.393-16.96-2.345-25.423c-2.293-20.361-6.809-36.056-14.214-49.392c-5.094-9.176-13.738-21.092-27.059-28.964
						C122.991,250.249,120.734,249.468,119.122,248.52z"/>
				</g>
				<g>
					<path style="fill:#31177A;" d="M167.814,357.344c-1.418-3.492-3.058-8.283-4.795-13.355c-2.055-6.001-4.18-12.206-5.978-16.326
						c-5.871-13.454-12.139-26.956-18.628-40.132c-6.489-13.173-13.373-26.372-20.461-39.229l1.593-0.879
						c7.102,12.883,14,26.106,20.5,39.304c6.502,13.201,12.782,26.729,18.664,40.21c1.827,4.187,3.965,10.428,6.031,16.464
						c1.729,5.047,3.361,9.815,4.76,13.261L167.814,357.344z"/>
				</g>
			</g>
			<path style="fill:#6A59E3;" d="M164.821,467.107c-13.88-2.107-26.432-9.797-36.612-19.465
				c-10.18-9.668-18.26-21.293-26.209-32.865c7.992-1.629,16.044-3.158,24.194-3.469c8.151-0.312,16.457,0.634,23.977,3.792
				c9.014,3.785,16.468,10.55,22.883,17.927c4.845,5.572,8.88,11.739,12.694,18.062L164.821,467.107z"/>
			<g>
				<polygon style="fill:#B5C1FB;" points="282.373,445.048 119.774,406.606 384.622,368.809 516.711,386.35 				"/>
				<path style="opacity:0.55;fill:#92A5EA;" d="M429.933,390.892c-13.854-5.888-29.595-6.97-44.399-8.566
					c-6.433-0.693-14.447-0.805-19.807-4.788c-1.912-1.421-3.266-3.359-3.562-5.577l-189.499,27.043
					c0.159,2.052,1.626,3.616,3.588,4.735c5.742,3.274,13.28,3.709,19.73,4.059c6.952,0.378,13.803-0.182,20.752-0.417
					c2.608-0.088,22.755,0.262,18.788,6.836c-0.968,1.604-3,2.618-4.352,3.863c-0.343,0.316-0.948,0.777-1.161,1.158
					c-0.676,1.212-0.589,0.432,0.248,1.3c0.711,0.737,2.306,1.075,3.251,1.302c4.95,1.192,10.387,0.376,15.346-0.354
					c10.922-1.608,22.452-3.483,33.415-1.356c0.564,0.109,0.759,0.923,0.342,1.296c-1.889,1.695-4.291,2.705-6.177,4.404
					c-3.049,2.747-1.409,5.057,1.717,6.471c4.755,2.151,10.544,3.053,15.596,4.198c4.248,0.963,8.529,1.773,12.833,2.45
					l134.784-33.761c0.125-0.615,0.2-1.244,0.217-1.887C441.755,396.841,435.09,393.084,429.933,390.892z"/>
				<g>
					<path style="fill:#FF97D3;" d="M268.055,211.685c2.606-0.118,5.128,0.922,7.401,2.202c9.576,5.393,16.085,15.19,19.54,25.623
						c3.455,10.433,4.16,21.56,4.437,32.547c0.114,4.529,1.937,21.406-5.128,17.837c-4.714-2.382-10.014-15.53-12.551-20.028
						c-5.01-8.887-8.746-18.492-11.068-28.426C270.125,239.044,266,211.778,268.055,211.685z"/>
					<path style="fill:#B5C1FB;" d="M308.676,296.392c9.121-15.982,22.292-29.632,37.938-39.319
						c0.786,6.189-1.565,12.361-4.604,17.81c-7.2,12.911-14.112,22.032-24.246,32.582c-2.885,3.003-15.21,12.141-16.156,10.75
						C298.614,313.811,306.365,300.443,308.676,296.392z"/>
					<g>
						<path style="fill:#31177A;" d="M296.288,375.354l-1.225-0.234c1.928-10.066,3.138-20.63,3.597-31.397
							c0.434-10.176,0.209-20.824-0.667-31.65c-0.822-10.154-2.242-20.76-4.22-31.523c-1.884-10.247-4.246-20.63-7.022-30.859
							c-2.208-8.138-5.413-18.729-10.639-28.474c-0.578-1.079-1.182-2.148-1.795-3.178l1.072-0.638
							c0.622,1.046,1.235,2.132,1.822,3.227c5.286,9.856,8.518,20.534,10.743,28.736c2.784,10.263,5.155,20.68,7.044,30.96
							c1.986,10.805,3.411,21.453,4.237,31.649c0.881,10.876,1.106,21.576,0.671,31.804
							C299.444,354.604,298.227,365.228,296.288,375.354z"/>
					</g>
					<g>
						<path style="fill:#31177A;" d="M299.469,331.392c-0.008,0-0.016,0.001-0.024,0.001c-0.344,0.006-0.628-0.267-0.635-0.612
							c-0.126-6.869,2.961-15.062,9.177-24.351c8.885-13.279,18.072-27.011,31.122-36.909c0.275-0.208,0.665-0.154,0.873,0.12
							c0.208,0.274,0.154,0.665-0.12,0.873c-12.884,9.771-22.011,23.414-30.839,36.608c-6.071,9.073-9.088,17.025-8.967,23.634
							C300.062,331.094,299.801,331.373,299.469,331.392z"/>
					</g>
					<g>
						<path style="fill:#31177A;" d="M298.356,310.061c-0.058,0.003-0.117-0.005-0.174-0.026c-0.227-0.083-0.343-0.334-0.261-0.56
							c3.582-9.82,7.238-21.43,7.199-33.082c-0.179-5.516-0.917-11.193-1.629-16.683c-0.352-2.709-0.715-5.51-1.006-8.245
							c-0.826-8.286-1.175-19.001,3.5-28.415l0.289-0.593l0.433,0.5c1.759,2.029,2.204,2.606,2.203,2.898
							c3.93,5.917,5.197,12.53,5.534,17.343c0.495,7.081-0.686,14.57-3.716,23.568c-1.473,4.373-2.947,8.661-4.785,13.038
							c-0.012,0.028-0.026,0.054-0.042,0.078c-0.595,10.6-3.907,20.981-7.157,29.894
							C298.68,309.944,298.525,310.052,298.356,310.061z M306.374,224.258c-4.162,9.016-3.811,19.191-3.02,27.117
							c0.288,2.723,0.652,5.518,1.003,8.222c0.716,5.511,1.456,11.209,1.637,16.78c0.001,0.334-0.001,0.668-0.005,1.002
							c1.445-3.635,2.678-7.233,3.91-10.892c2.993-8.885,4.16-16.266,3.673-23.229c-0.335-4.789-1.611-11.401-5.607-17.243
							C307.623,225.699,306.86,224.956,306.374,224.258z"/>
					</g>
				</g>
				<g>
					<path style="fill:#FF97D3;" d="M399.039,296.082c-2.197-0.685-4.582-0.363-6.808,0.22c-9.379,2.456-17.129,9.356-22.415,17.483
						c-5.286,8.128-8.381,17.463-11.08,26.776c-1.113,3.839-6.451,17.83,0.378,16.368c4.556-0.975,12.025-11.006,15.197-14.276
						c6.267-6.46,11.606-13.818,15.815-21.773C391.141,318.961,400.772,296.621,399.039,296.082z"/>
					<path style="fill:#B5C1FB;" d="M345.395,359.252c-4.201-15.681-12.379-30.28-23.558-42.051
						c-2.058,5.104-1.435,10.898-0.064,16.228c3.25,12.63,7.103,21.961,13.385,33.234c1.788,3.209,10.256,13.768,11.376,12.793
						C350.076,376.37,346.46,363.227,345.395,359.252z"/>
					<g>
						<path style="fill:#31177A;" d="M391.501,299.314c-0.765,0.753-1.532,1.543-2.278,2.345
							c-6.719,7.225-11.87,15.612-15.607,22.111c-4.676,8.133-9.033,16.489-12.949,24.838c-4.116,8.774-7.719,17.54-10.708,26.055
							c-0.358,1.018-0.703,2.036-1.045,3.054c0.514-0.38,1.03-0.757,1.549-1.129c0.179-0.52,0.351-1.04,0.534-1.561
							c2.977-8.479,6.566-17.211,10.666-25.951c3.904-8.321,8.246-16.651,12.907-24.756c3.708-6.449,8.816-14.767,15.459-21.91
							c0.735-0.791,1.49-1.568,2.244-2.309L391.501,299.314z"/>
					</g>
					<g>
						<path style="fill:#31177A;" d="M346.662,379.995c-0.44-3.632-1.415-7.646-2.928-12.024
							c-4.605-13.321-9.366-27.097-18.282-38.467c-0.188-0.239-0.533-0.28-0.772-0.093c-0.239,0.187-0.281,0.533-0.093,0.772
							c8.803,11.225,13.533,24.911,18.108,38.147c1.589,4.595,2.572,8.768,2.955,12.499
							C345.988,380.553,346.32,380.268,346.662,379.995z"/>
					</g>
					<g>
						<path style="fill:#31177A;" d="M350.603,372.705c-1.107-11.891-1.819-25.589,0.846-38.685
							c-0.012-0.034-0.021-0.071-0.027-0.109c-0.838-5.917-1.262-11.609-1.656-17.404c-0.812-11.924,0.145-21.42,3.013-29.883
							c1.949-5.752,5.607-13.398,12.284-19.346c0.092-0.356,0.818-0.917,3.609-2.824l0.688-0.47l0.162,0.815
							c2.681,12.956-1.171,25.891-4.827,35.715c-1.228,3.237-2.566,6.532-3.861,9.717c-2.624,6.456-5.337,13.133-7.319,19.791
							c-3.774,14.174-3.036,29.479-1.815,42.581c0.028,0.302-0.194,0.571-0.497,0.599c-0.077,0.007-0.151-0.002-0.22-0.025
							C350.778,373.112,350.624,372.931,350.603,372.705z M366.162,267.777c-6.734,5.834-10.402,13.476-12.341,19.2
							c-2.82,8.321-3.759,17.681-2.957,29.456c0.33,4.849,0.681,9.624,1.277,14.512c0.101-0.408,0.205-0.815,0.314-1.221
							c2.002-6.725,4.725-13.426,7.359-19.907c1.292-3.179,2.628-6.467,3.85-9.69c3.497-9.397,7.179-21.674,4.995-33.982
							C367.844,266.839,366.677,267.5,366.162,267.777z"/>
					</g>
					<g>
						<path style="fill:#31177A;" d="M351.258,332.597l1.077,0.224c0.443-2.127,0.879-5.013,1.34-8.068
							c0.546-3.613,1.109-7.349,1.703-9.869c1.94-8.236,4.099-16.537,6.417-24.671c2.317-8.134,4.857-16.326,7.549-24.349
							l-1.043-0.35c-2.697,8.039-5.242,16.248-7.564,24.397c-2.322,8.151-4.485,16.468-6.429,24.72
							c-0.604,2.564-1.171,6.323-1.72,9.957C352.128,327.629,351.695,330.5,351.258,332.597z"/>
					</g>
				</g>
				<g>
					<path style="fill:#6A59E3;" d="M325.488,377.527l-98.624,16.87l-20.357-78.521c-1.252-4.828,1.992-9.666,6.934-10.341
						l87.408-11.944c4.365-0.596,8.439,2.309,9.296,6.63L325.488,377.527z"/>
					<path style="fill:#B5C1FB;" d="M322.893,376.229l-92.024,15.908l-18.995-73.993c-1.168-4.55,1.859-9.109,6.47-9.745
						l81.559-11.255c4.072-0.562,7.874,2.176,8.674,6.248L322.893,376.229z"/>
					<polygon style="fill:#8598DD;" points="400.754,391.152 316.404,419.053 226.864,394.397 325.488,377.527 					"/>
					<polygon style="fill:#B5C1FB;" points="365.068,399.587 337.816,408.671 317.702,402.183 345.602,395.046 					"/>
					<path style="fill:#B5C1FB;" d="M277.953,387.081l-10.942,1.954c3.395,1.129,6.788,2.26,10.169,3.431l10.105-1.991
						C284.181,389.323,281.073,388.187,277.953,387.081z"/>
					<path style="fill:#B5C1FB;" d="M326.581,382.73l9.937-1.959l-12.328-1.947l-5.504,0.983
						C321.352,380.675,323.98,381.668,326.581,382.73z"/>
					<path style="fill:#B5C1FB;" d="M315.33,380.407l-9.119,1.628c2.981,0.983,5.963,1.963,8.944,2.946l8.634-1.702
						C321.009,382.201,318.193,381.221,315.33,380.407z"/>
					<path style="fill:#B5C1FB;" d="M303.008,382.607l-8.453,1.509c3.265,1.073,6.558,2.058,9.871,2.979l7.63-1.504
						C309.038,384.601,306.021,383.61,303.008,382.607z"/>
					<path style="fill:#B5C1FB;" d="M291.38,384.684l-10.372,1.852c3.068,1.104,6.129,2.225,9.183,3.366l10.885-2.145
						C297.82,386.808,294.585,385.793,291.38,384.684z"/>
					<path style="fill:#B5C1FB;" d="M263.819,389.605l-11.227,2.005c3.749,1.105,7.489,2.238,11.186,3.497l10.373-2.044
						C270.712,391.894,267.264,390.754,263.819,389.605z"/>
					<path style="fill:#B5C1FB;" d="M249.178,392.22l-15.825,2.826l14.275,3.244l13.093-2.581
						C256.898,394.471,253.037,393.345,249.178,392.22z"/>
					<path style="fill:#B5C1FB;" d="M296.095,391.102l-10.904,2.153c3.415,1.067,6.828,2.137,10.23,3.245l10.067-2.175
						C302.363,393.23,299.234,392.15,296.095,391.102z"/>
					<path style="fill:#B5C1FB;" d="M344.636,385.866l9.9-2.139l-12.361-1.722l-5.486,1.083
						C339.371,383.906,342.016,384.852,344.636,385.866z"/>
					<path style="fill:#B5C1FB;" d="M333.344,383.748l-9.088,1.794c2.998,0.929,5.998,1.854,8.996,2.783l8.602-1.859
						C339.055,385.438,336.222,384.51,333.344,383.748z"/>
					<path style="fill:#B5C1FB;" d="M321.064,386.172l-8.424,1.663c3.284,1.014,6.595,1.939,9.924,2.799l7.601-1.642
						C327.13,388.056,324.095,387.12,321.064,386.172z"/>
					<path style="fill:#B5C1FB;" d="M309.476,388.46l-10.337,2.041c3.087,1.048,6.169,2.113,9.243,3.198l10.844-2.343
						C315.954,390.466,312.701,389.51,309.476,388.46z"/>
					<path style="fill:#B5C1FB;" d="M282.009,393.883l-11.189,2.209c3.768,1.037,7.529,2.101,11.247,3.293l10.334-2.233
						C288.943,396.046,285.475,394.968,282.009,393.883z"/>
					<path style="fill:#B5C1FB;" d="M267.418,396.763l-15.771,3.114l14.331,2.984l13.044-2.818
						C275.178,398.874,271.297,397.818,267.418,396.763z"/>
					<path style="fill:#B5C1FB;" d="M314.234,394.502l-10.854,2.395c3.438,0.99,6.874,1.984,10.299,3.016l10.016-2.399
						C320.548,396.491,317.396,395.481,314.234,394.502z"/>
					<path style="fill:#B5C1FB;" d="M359.439,384.527l-4.799,1.059c2.699,0.759,5.365,1.645,8.007,2.6l7.764-1.86
						C366.764,385.664,363.133,384.901,359.439,384.527z"/>
					<path style="fill:#B5C1FB;" d="M351.311,386.321l-9.046,1.996c3.018,0.862,6.038,1.72,9.056,2.582l8.558-2.05
						C357.058,387.884,354.205,387.018,351.311,386.321z"/>
					<path style="fill:#B5C1FB;" d="M339.087,389.018l-8.384,1.85c3.306,0.94,6.636,1.791,9.984,2.578l7.563-1.811
						C345.194,390.767,342.139,389.898,339.087,389.018z"/>
					<path style="fill:#B5C1FB;" d="M327.553,391.563l-10.289,2.27c3.11,0.979,6.214,1.975,9.312,2.991l10.789-2.584
						C334.074,393.425,330.801,392.542,327.553,391.563z"/>
					<path style="fill:#B5C1FB;" d="M300.214,397.596l-11.137,2.457c3.791,0.953,7.574,1.933,11.318,3.042l10.282-2.462
						C307.194,399.604,303.703,398.604,300.214,397.596z"/>
					<path style="fill:#B5C1FB;" d="M285.69,400.801l-15.698,3.464l14.394,2.664l12.978-3.108
						C293.496,402.738,289.592,401.769,285.69,400.801z"/>
					<polygon style="fill:#31177A;" points="316.404,426.839 226.864,399.587 226.864,394.397 316.404,419.053 					"/>
					<polygon style="fill:#231068;" points="400.754,391.152 316.404,419.053 316.404,426.839 400.754,398.29 					"/>
					<path style="opacity:0.67;fill:#99CAD1;" d="M217.046,310.345l81.559-11.255c4.072-0.562,7.874,2.176,8.674,6.248
						l13.989,71.173l1.625-0.281l-14.317-72.838c-0.8-4.072-4.602-6.81-8.674-6.248l-81.559,11.255
						c-2.721,0.375-4.881,2.121-5.962,4.421C213.557,311.522,215.166,310.604,217.046,310.345z"/>
					<path style="fill:#31177A;" d="M210.4,315.875c-1.252-4.828,1.992-9.666,6.934-10.341l86.458-11.814
						c-0.942-0.211-1.934-0.268-2.943-0.13l-87.408,11.944c-4.942,0.675-8.186,5.513-6.934,10.341l20.357,78.521l3.893,1.947
						L210.4,315.875z"/>
					<g>
						<g>
							<polygon style="fill:#EFD0DA;" points="287.379,341.035 255.777,348.208 254.324,316.827 278.592,312.642 286.542,317.664 
															"/>
							<polygon style="fill:#FFE6EF;" points="286.594,319.116 286.542,317.664 278.674,312.694 278.674,319.116 							"/>
							<path style="fill:none;stroke:#FC8A8A;stroke-width:4;stroke-linecap:round;stroke-miterlimit:10;" d="M281.044,337.508
								c1.212-0.221,2.427-0.42,3.648-0.589"/>
							<path style="fill:none;stroke:#FC8A8A;stroke-width:4;stroke-linecap:round;stroke-miterlimit:10;" d="M272.425,339.332
								c2.217-0.503,4.436-1.005,6.665-1.45"/>
							<path style="fill:none;stroke:#FC8A8A;stroke-width:4;stroke-linecap:round;stroke-miterlimit:10;" d="M257.47,342.131
								c4.32-0.477,8.579-1.365,12.816-2.316"/>
							<path style="fill:none;stroke:#FC8A8A;stroke-width:4;stroke-linecap:round;stroke-miterlimit:10;" d="M280.956,333.857
								c1.218-0.24,2.438-0.476,3.658-0.703"/>
							<path style="fill:none;stroke:#FC8A8A;stroke-width:4;stroke-linecap:round;stroke-miterlimit:10;" d="M269.442,336.194
								c3.278-0.656,6.55-1.342,9.828-2.001"/>
							<path style="fill:none;stroke:#FC8A8A;stroke-width:4;stroke-linecap:round;stroke-miterlimit:10;" d="M257.48,338.35
								c3.177-0.487,6.341-1.058,9.497-1.67"/>
							<path style="fill:none;stroke:#FC8A8A;stroke-width:4;stroke-linecap:round;stroke-miterlimit:10;" d="M280.982,330.131
								c1.229-0.22,2.458-0.437,3.688-0.652"/>
							<path style="fill:none;stroke:#FC8A8A;stroke-width:4;stroke-linecap:round;stroke-miterlimit:10;" d="M266.247,332.846
								c4.342-0.817,8.685-1.625,13.033-2.41"/>
							<path style="fill:none;stroke:#FC8A8A;stroke-width:4;stroke-linecap:round;stroke-miterlimit:10;" d="M257.502,334.496
								c2.078-0.392,4.156-0.785,6.234-1.177"/>
							<path style="fill:none;stroke:#FC8A8A;stroke-width:4;stroke-linecap:round;stroke-miterlimit:10;" d="M281.073,326.134
								c1.209-0.228,2.415-0.47,3.617-0.734"/>
							<path style="fill:none;stroke:#FC8A8A;stroke-width:4;stroke-linecap:round;stroke-miterlimit:10;" d="M262.586,329.182
								c5.493-1.006,11.033-1.726,16.532-2.693"/>
							<path style="fill:none;stroke:#FC8A8A;stroke-width:4;stroke-linecap:round;stroke-miterlimit:10;" d="M257.484,330.21
								c0.85-0.189,1.703-0.368,2.557-0.54"/>
							
								<line style="fill:none;stroke:#FC8A8A;stroke-width:4;stroke-linecap:round;stroke-miterlimit:10;" x1="265.861" y1="317.867" x2="276.839" y2="315.997"/>
							
								<line style="fill:none;stroke:#FC8A8A;stroke-width:4;stroke-linecap:round;stroke-miterlimit:10;" x1="265.861" y1="322.052" x2="276.839" y2="320.182"/>
							<path style="fill:#FC8A8A;" d="M262.556,325.832l-2.78,0.57c-1.422,0.292-2.754-0.795-2.754-2.246v-3.629
								c0-1.089,0.766-2.027,1.832-2.246l2.78-0.57c1.422-0.292,2.754,0.795,2.754,2.246v3.629
								C264.388,324.675,263.622,325.614,262.556,325.832z"/>
						</g>
						<path style="fill:#E08B03;" d="M291.314,340.54c-0.073-1.648-1.564-2.867-3.194-2.61l-3.08,0.485l-0.111-2.494
							c-0.028-0.624-0.592-1.085-1.208-0.987l-15.129,2.381c-0.53,0.083-0.911,0.554-0.882,1.09l0.146,2.715l-19.724,3.105
							c-1.401,0.221-2.409,1.465-2.332,2.882l2.362,32.516c0.09,1.669,3.788,4.067,5.431,3.76l36.909-7.564
							c1.355-0.253,2.317-1.465,2.256-2.842L291.314,340.54z"/>
						<g>
							<polygon style="fill:#FFFFFF;" points="279.728,350.888 250.209,357.588 248.852,328.276 271.521,324.367 278.946,329.057 
															"/>
							<polygon style="fill:#E9FDFF;" points="278.995,330.414 278.946,329.057 271.597,324.416 271.597,330.414 							"/>
							<g style="opacity:0.67;">
								<path style="fill:#99CAD1;" d="M273.809,349.215c-0.769,0-1.451-0.549-1.594-1.332c-0.161-0.881,0.424-1.726,1.305-1.886
									c1.234-0.224,2.371-0.408,3.475-0.561c0.891-0.118,1.706,0.497,1.829,1.384c0.123,0.887-0.497,1.706-1.384,1.829
									c-1.058,0.146-2.15,0.322-3.339,0.539C274.003,349.207,273.905,349.215,273.809,349.215z"/>
							</g>
							<g style="opacity:0.67;">
								<path style="fill:#99CAD1;" d="M265.758,350.919c-0.741,0-1.41-0.511-1.58-1.264c-0.198-0.874,0.349-1.742,1.223-1.941
									c2.033-0.461,4.135-0.937,6.267-1.363c0.881-0.177,1.733,0.394,1.909,1.272c0.176,0.879-0.394,1.733-1.273,1.909
									c-2.092,0.418-4.173,0.89-6.186,1.346C265.998,350.906,265.877,350.919,265.758,350.919z"/>
							</g>
							<g style="opacity:0.67;">
								<path style="fill:#99CAD1;" d="M251.789,353.534c-0.816,0-1.519-0.614-1.61-1.444c-0.098-0.89,0.544-1.692,1.434-1.791
									c3.747-0.413,7.424-1.152,11.794-2.133c0.875-0.194,1.742,0.353,1.938,1.227c0.196,0.874-0.353,1.742-1.227,1.938
									c-4.475,1.005-8.253,1.763-12.149,2.193C251.908,353.531,251.848,353.534,251.789,353.534z"/>
							</g>
							<g style="opacity:0.67;">
								<path style="fill:#99CAD1;" d="M273.727,345.805c-0.759,0-1.437-0.535-1.589-1.309c-0.173-0.879,0.399-1.732,1.278-1.905
									c1.144-0.225,2.288-0.446,3.434-0.66c0.883-0.16,1.728,0.418,1.892,1.298c0.164,0.881-0.417,1.728-1.298,1.892
									c-1.134,0.211-2.268,0.43-3.4,0.653C273.936,345.795,273.831,345.805,273.727,345.805z"/>
							</g>
							<g style="opacity:0.67;">
								<path style="fill:#99CAD1;" d="M262.972,347.988c-0.758,0-1.435-0.533-1.589-1.304c-0.176-0.878,0.394-1.733,1.272-1.909
									c1.602-0.321,3.203-0.649,4.803-0.977c1.458-0.299,2.916-0.598,4.375-0.892c0.881-0.175,1.734,0.393,1.91,1.271
									c0.177,0.878-0.392,1.733-1.271,1.91c-1.455,0.292-2.909,0.59-4.363,0.888c-1.606,0.329-3.211,0.659-4.818,0.98
									C263.185,347.978,263.077,347.988,262.972,347.988z"/>
							</g>
							<g style="opacity:0.67;">
								<path style="fill:#99CAD1;" d="M251.798,350.002c-0.788,0-1.479-0.574-1.602-1.376c-0.136-0.886,0.472-1.713,1.358-1.849
									c2.648-0.406,5.529-0.913,8.807-1.549c0.879-0.17,1.731,0.404,1.902,1.283c0.171,0.88-0.404,1.731-1.283,1.902
									c-3.321,0.644-6.243,1.158-8.934,1.571C251.963,349.996,251.88,350.002,251.798,350.002z"/>
							</g>
							<g style="opacity:0.67;">
								<path style="fill:#99CAD1;" d="M273.751,342.325c-0.771,0-1.454-0.551-1.595-1.336c-0.158-0.882,0.429-1.725,1.311-1.883
									c1.15-0.206,2.3-0.409,3.451-0.611c0.879-0.153,1.723,0.435,1.877,1.319c0.155,0.883-0.436,1.723-1.318,1.878
									c-1.147,0.2-2.293,0.404-3.439,0.608C273.942,342.317,273.845,342.325,273.751,342.325z"/>
							</g>
							<g style="opacity:0.67;">
								<path style="fill:#99CAD1;" d="M259.988,344.861c-0.765,0-1.446-0.543-1.592-1.322c-0.166-0.88,0.414-1.728,1.294-1.894
									c4.905-0.923,8.663-1.618,12.185-2.253c0.878-0.161,1.725,0.427,1.884,1.309c0.159,0.881-0.427,1.725-1.308,1.884
									c-3.514,0.634-7.265,1.327-12.161,2.249C260.188,344.852,260.087,344.861,259.988,344.861z"/>
							</g>
							<g style="opacity:0.67;">
								<path style="fill:#99CAD1;" d="M251.819,346.402c-0.764,0-1.445-0.542-1.592-1.321c-0.166-0.881,0.413-1.729,1.293-1.895
									l5.823-1.099c0.879-0.164,1.729,0.413,1.895,1.293c0.166,0.881-0.413,1.728-1.293,1.895l-5.823,1.099
									C252.02,346.393,251.919,346.402,251.819,346.402z"/>
							</g>
							<g style="opacity:0.67;">
								<path style="fill:#99CAD1;" d="M273.836,338.592c-0.764,0-1.445-0.542-1.592-1.322c-0.166-0.88,0.413-1.728,1.293-1.895
									c1.184-0.223,2.274-0.444,3.332-0.676c0.872-0.19,1.74,0.363,1.931,1.237c0.192,0.875-0.362,1.74-1.238,1.932
									c-1.089,0.238-2.21,0.466-3.424,0.695C274.036,338.583,273.935,338.592,273.836,338.592z"/>
							</g>
							<g style="opacity:0.67;">
								<path style="fill:#99CAD1;" d="M256.568,341.439c-0.768,0-1.45-0.547-1.594-1.329c-0.161-0.881,0.422-1.727,1.303-1.888
									c2.779-0.509,5.607-0.946,8.342-1.369c2.336-0.361,4.752-0.734,7.112-1.148c0.881-0.158,1.723,0.434,1.879,1.317
									c0.155,0.882-0.435,1.724-1.317,1.878c-2.393,0.421-4.825,0.796-7.178,1.16c-2.713,0.419-5.517,0.852-8.252,1.353
									C256.763,341.431,256.665,341.439,256.568,341.439z"/>
							</g>
							<g style="opacity:0.67;">
								<path style="fill:#99CAD1;" d="M251.802,342.4c-0.744,0-1.414-0.515-1.582-1.272c-0.194-0.874,0.358-1.741,1.232-1.935
									c0.805-0.179,1.612-0.348,2.42-0.511c0.881-0.176,1.734,0.393,1.91,1.271c0.176,0.878-0.393,1.733-1.271,1.91
									c-0.787,0.158-1.573,0.324-2.356,0.497C252.037,342.387,251.918,342.4,251.802,342.4z"/>
							</g>
							<g style="opacity:0.67;">
								<path style="fill:#99CAD1;" d="M259.626,330.87c-0.776,0-1.462-0.559-1.597-1.35c-0.151-0.883,0.444-1.721,1.327-1.872
									l10.255-1.747c0.885-0.144,1.721,0.444,1.871,1.327c0.15,0.883-0.444,1.721-1.327,1.872l-10.255,1.747
									C259.809,330.862,259.717,330.87,259.626,330.87z"/>
							</g>
							<g style="opacity:0.67;">
								<path style="fill:#99CAD1;" d="M259.626,334.778c-0.776,0-1.462-0.559-1.597-1.35c-0.151-0.883,0.444-1.721,1.327-1.872
									l10.255-1.747c0.885-0.146,1.721,0.444,1.871,1.327c0.15,0.883-0.444,1.721-1.327,1.872l-10.255,1.747
									C259.809,334.771,259.717,334.778,259.626,334.778z"/>
							</g>
							<path style="fill:#99CAD1;" d="M256.541,336.688l-2.597,0.533c-1.328,0.272-2.572-0.742-2.572-2.098v-3.39
								c0-1.017,0.715-1.894,1.711-2.098l2.597-0.533c1.328-0.272,2.572,0.742,2.572,2.098v3.39
								C258.253,335.607,257.538,336.483,256.541,336.688z"/>
						</g>
						<path style="fill:#FFA400;" d="M293.833,340.909c-0.073-1.634-1.551-2.842-3.167-2.588l-3.053,0.481l-0.11-2.472
							c-0.027-0.618-0.587-1.075-1.198-0.979l-14.998,2.361c-0.526,0.083-0.904,0.549-0.875,1.081l0.145,2.691l-19.554,3.078
							c-1.389,0.219-2.388,1.452-2.312,2.857l1.788,33.257c0.089,1.655,1.614,2.853,3.243,2.549l39.285-7.343
							c1.343-0.251,2.297-1.453,2.236-2.818L293.833,340.909z"/>
					</g>
					<g>
						<path style="opacity:0.77;fill:#FFFFFF;" d="M302.327,328.726c3.824,6.608,1.567,15.066-5.041,18.89
							c-6.608,3.824-15.065,1.567-18.89-5.041c-3.824-6.608-1.567-15.065,5.041-18.89
							C290.046,319.861,298.503,322.118,302.327,328.726z"/>
						<path style="fill:#D2DCFF;" d="M283.438,323.685c-6.608,3.824-8.865,12.281-5.041,18.89c0.195,0.336,0.404,0.659,0.622,0.972
							c-2.484-5.378-0.505-11.86,4.723-14.885c5.542-3.207,12.636-1.314,15.843,4.228c3.025,5.228,1.511,11.835-3.322,15.259
							c0.345-0.163,0.688-0.338,1.024-0.533c6.608-3.824,8.865-12.281,5.041-18.89C298.503,322.118,290.046,319.861,283.438,323.685
							z"/>
						<path style="fill:#31177A;" d="M297.733,348.388c-7.023,4.064-16.044,1.657-20.108-5.366
							c-4.064-7.023-1.657-16.044,5.366-20.108c7.023-4.064,16.044-1.657,20.108,5.366
							C307.163,335.303,304.756,344.324,297.733,348.388z M283.884,324.457c-6.172,3.572-8.288,11.499-4.716,17.671
							c3.572,6.172,11.499,8.288,17.671,4.716c6.172-3.572,8.288-11.499,4.716-17.671
							C297.984,323.001,290.057,320.885,283.884,324.457z"/>
						<path style="fill:#31177A;" d="M294.943,348.113c1.208,2.521,2.674,5.298,4.338,8.174
							c5.765,9.962,11.705,17.304,13.268,16.399c1.563-0.905-1.843-9.713-7.607-19.675c-1.664-2.875-3.342-5.53-4.925-7.834
							L294.943,348.113z"/>
					</g>
					<path style="opacity:0.39;fill:#D2DCFF;" d="M215.112,330.759l25.423-25.423l-22.192,3.062
						c-4.611,0.637-7.638,5.195-6.47,9.745L215.112,330.759z"/>
					<path style="opacity:0.39;fill:#D2DCFF;" d="M286.263,299.025l-9.687,1.337c-18.373,18.373-36.745,36.746-55.118,55.118
						l1.706,6.644L286.263,299.025z"/>
					<polygon style="opacity:0.39;fill:#D2DCFF;" points="312.587,323.798 308.818,304.618 228.914,384.522 230.869,392.137 
						247.045,389.34 					"/>
					<polygon style="opacity:0.39;fill:#D2DCFF;" points="315.838,340.337 312.948,325.631 249.697,388.882 270.97,385.205 					"/>
				</g>
				<polygon style="fill:#E1E7FF;" points="282.373,464.321 120.043,425.885 119.774,406.606 282.373,445.048 				"/>
				<polygon style="fill:#92A5EA;" points="516.711,399.384 282.373,464.321 282.373,445.048 516.711,387.096 				"/>
				<path style="fill:#FEC5A7;" d="M396.961,275.318c1.577,0.345,3.527,0.683,4.497,0.741c0.038-3.875-1.169-8.938-2.132-12.792
					c-1.543,3.841-2.587,6.987-3.71,10.217C395.351,274.25,395.972,275.102,396.961,275.318z"/>
				<path style="fill:#FEC5A7;" d="M444.402,287.864c0.715,3.018,1.399,6.003,2.88,8.757c1.576,2.931,4.096,5.332,2.692,8.899
					c-0.691,1.756-1.996,3.189-3.289,4.564c-3.684,3.918-7.616,7.801-12.53,9.988c-4.565,2.032-12.318,3.466-16.946,1.128
					c-2.013-1.017-3.751-2.493-5.467-3.955c-0.983-0.837-2.005-1.729-2.449-2.941c-0.126-0.343-0.201-0.717-0.13-1.075
					c0.09-0.452,0.398-0.825,0.689-1.182c2.206-2.715,4.846-6.304,5.064-9.827c0.219-3.543-1.098-7.97-1.514-11.547
					c-0.271-2.307-0.455-4.918,1.069-6.67c1.509-1.734,3.989-1.928,5.855-3.105c2.572-1.623,5.233-2.737,8.122-3.827
					c2.271-0.857,4.566-1.701,6.947-2.204c1.758-0.371,4.894-6.184,6.573-5.23C443.513,270.514,442.539,279.997,444.402,287.864z"/>
				<path style="fill:#EFAE95;" d="M414.921,301.789c6.242-1.384,12.141-8.811,16.902-12.216c3.273-2.341,7.461-4.674,11.815-6.074
					c-0.829-6.649-0.405-13.142-1.671-13.861c-1.679-0.954-4.815,4.86-6.573,5.23c-2.381,0.502-4.675,1.347-6.946,2.204
					c-2.889,1.09-5.55,2.204-8.122,3.827c-1.866,1.177-4.346,1.371-5.855,3.105c-1.525,1.752-1.341,4.364-1.07,6.67
					C413.802,294.109,415.019,298.321,414.921,301.789z"/>
				<path style="fill:#FEC5A7;" d="M440.754,237.247c3.872,3.46,4.907,8.998,5.058,14.153c0.225,7.665-1.071,15.491-4.541,22.448
					c-3.47,6.957-9.22,12.996-16.458,16.204c-5.877,2.606-13.373,3.043-18.143-1.033c-2.862-2.446-4.291-6.098-5.302-9.685
					c-2.405-8.533-3.857-23.956-3.857-32.873c0-5.191,10.655-8.14,15.572-10.382C421.229,232.365,433.935,231.154,440.754,237.247z"
					/>
				<path style="fill:#930323;" d="M469.245,295.657c-3.318-1.343-6.76-2.364-10.301-2.854c-5.555-0.77-11.219-0.219-16.733,0.805
					c-2.187,0.406-4.36,0.888-6.515,1.444c-17.32,4.472-31.346,14.188-45.853,24.192c-0.491,0.339-1.015,0.721-1.188,1.292
					c-0.163,0.542,0.03,1.119,0.22,1.652c4.174,11.749,7.193,23.87,10.205,35.969c5.405,21.71,10.811,43.419,16.216,65.129
					c0.22,0.884,0.491,1.845,1.239,2.366c0.481,0.335,1.084,0.43,1.664,0.513c27.243,3.905,55.278,2.2,81.847-4.978
					c1.617-0.437,3.301-0.934,4.5-2.103c1.365-1.331,1.863-3.294,2.268-5.157c2.036-9.375,3.176-18.944,3.415-28.534
					c0.243-9.764-1.419-19.197-1.837-28.871c-0.673-15.581-6.483-33.989-17.048-45.816c-4.779-5.35-10.759-9.541-17.156-12.787
					C472.574,297.101,470.925,296.337,469.245,295.657z"/>
				<path style="fill:#31177A;" d="M426.402,228.482c-4.814,0.213-9.612,0.72-14.405,1.227c-2.606,0.275-35.576,2.676-31.629,9.647
					c0.688,1.214,2.089,1.825,3.438,2.181c4.655,1.231,9.576,0.377,14.313-0.483c-2.62,0.401-5.119,1.561-7.117,3.303
					c-1.582,1.38-2.897,3.703-1.797,5.491c0.388,0.631,1.021,1.072,1.667,1.434c2.713,1.519,6.021,1.938,9.027,1.144
					c5.139-1.358,15.925-13.541,20.931-5.946c1.463,2.219,1.031,5.207-0.032,7.643c-1.063,2.436-2.684,4.614-3.581,7.115
					c-0.825,2.3-1.003,4.782-0.983,7.226c0.009,1.15,0.087,2.379,0.777,3.3c0.689,0.921,2.211,1.294,2.988,0.445
					c-0.478-2.488-0.257-5.107,0.63-7.481c0.468-1.252,1.463-2.626,2.785-2.431c0.768,0.113,1.354,0.743,1.767,1.399
					c1.421,2.255,1.518,5.07,1.572,7.736c0.089,4.391,0.178,8.782,0.267,13.173c0.023,1.11,0.302,2.537,1.398,2.715
					c1.527,0.249,2.564-1.896,3.056-2.994c1.454,0.941,1.977,3.579,4.198,3.56c1.37-0.012,2.348-1.338,2.847-2.614
					c0.593-1.519,0.842-3.171,0.723-4.798c0.271,1.839,1.026,3.605,2.168,5.071c0.301,0.387,0.642,0.763,1.086,0.97
					c0.82,0.383,1.848,0.082,2.484-0.562c0.635-0.644,0.925-1.564,0.992-2.466c0.155-2.062-1.04-3.764-1.177-5.662
					c-0.132-1.825,0.894-4.023,1.385-5.769c1.151-4.092,2.37-8.172,3.169-12.351c1.119-5.847,1.398-11.999-0.421-17.667
					c-1.819-5.669-5.994-10.796-11.645-12.668c-2.978-0.987-6.178-1.04-9.314-0.946
					C427.447,228.439,426.925,228.459,426.402,228.482z"/>
				<path style="fill:#31177A;" d="M291.568,422.99c-5.824-1.884-13.228-0.823-18.756,0.593c-1.833,0.469-3.666,1.071-5.218,2.154
					c-3.547,2.476-4.533,7.483-0.707,10.214c1.776,1.268,3.991,1.729,6.146,2.069c8.899,1.403,17.96,1.259,26.968,1.111
					c3.332-0.055,2.254-1.792,1.497-4.032c-0.521-1.541-0.9-3.257-1.634-4.715c-1.246-2.473-2.968-4.706-5.393-6.115
					C293.565,423.742,292.591,423.32,291.568,422.99z"/>
				<path style="fill:#3A238E;" d="M301.498,435.099c-0.521-1.541-0.899-3.258-1.634-4.715c-0.214-0.425-0.447-0.838-0.69-1.246
					c-1.261,1.254-3.044,1.834-5.524,1.655c-3.775-0.272-6.717-1.371-10.538,0.011c-2.98,1.077-5.611,2.63-8.766,3.251
					c-3.22,0.634-7.142,0.378-9.803-1.655c0.247,1.326,0.988,2.582,2.345,3.55c1.776,1.268,3.991,1.729,6.146,2.069
					c8.899,1.403,17.96,1.259,26.968,1.111C303.334,439.076,302.255,437.339,301.498,435.099z"/>
				<path style="fill:#FEC5A7;" d="M418.631,349.785c-3.107-11.238-7.611-25.822-17.658-32.11
					c-10.193-6.379-21.763,10.28-24.603,19.238c-2.11,6.655-8.703,43.46-11.574,65.256c-0.322,2.445-2.332,4.32-4.793,4.464
					c-14.124,0.825-28.266,1.372-42.401,1.957c-4.262,0.177-8.583,0.189-12.825,0.657c-3.419,0.377-6.818,0.217-10.276,0.531
					c-7.27,0.66-14.382,3.103-20.483,7.118c-2.806,1.847-5.489,4.125-6.864,7.191c-0.278,0.62-0.502,1.297-0.399,1.968
					c0.04,0.262,0.118,0.466,0.212,0.647c4.105-0.272,8.179-2.562,12.378-3.168c3.664-0.529,7.354-0.369,10.869,0.852
					c0.936,0.326,1.822,0.723,2.666,1.172c2.485,0.997,4.697,2.684,5.901,5.03c1.38,1.822,2.423,3.912,3.097,6.19
					c0.389,0.307,0.851,0.55,1.411,0.705c3.939,1.093,8.957,0.726,13.038,0.971c17.265,1.035,34.536,1.894,51.833,2.133
					c2.493,0.034,4.987,0.059,7.48,0.059c8.177,0.015,16.509-0.155,24.264-2.749c6.417-2.146,12.456-6.227,15.95-11.918
					c-0.155-0.045-0.31-0.088-0.465-0.133c1.892-2.9,3.332-6.138,4.284-9.445c2.356-8.182,2.222-16.841,2.229-25.356
					C421.914,377.202,422.319,363.128,418.631,349.785z"/>
				<path style="fill:#A30730;" d="M418.631,349.786c-3.107-11.238-7.611-25.822-17.658-32.11
					c-10.193-6.379-21.763,10.279-24.603,19.238c-2.253,7.106-10.761,45.686-13.248,66.567c-17.88,1.12-42.34,2.989-64.402,3.946
					c1.914,5.961,4.017,14.284,4.024,20.478c0.003,2.757-0.36,8.495-0.613,11.263c7.305,0.872,56.384,1.448,73.511,1.479
					c8.178,0.015,16.509-0.155,24.264-2.749c6.417-2.146,12.456-6.227,15.95-11.918c-0.155-0.045-0.31-0.088-0.465-0.133
					c1.892-2.9,3.332-6.138,4.284-9.445c2.356-8.182,2.222-16.841,2.229-25.356C421.914,377.202,422.319,363.128,418.631,349.786z"
					/>
				<path style="fill:#BA0C42;" d="M309.005,439.926c2.12-11.431,1.356-23.328-2.568-34.333c-2.594,0.139-6.007,0.467-8.551,0.583
					c2.16,6.918,3.583,10,4.083,18.417c0.173,2.906-0.247,12.161-0.5,15.083C302.697,439.831,305.768,439.79,309.005,439.926z"/>
				<path style="fill:#0C0097;" d="M399.107,258.253c0.022-0.267,0.221-0.455,0.414-0.598c1.168-0.863,2.437-0.953,3.81-0.722
					c1.248,0.21,2.36,0.681,3.148,1.936c0.077,0.122,0.149,0.252,0.183,0.395c0.089,0.386-0.13,0.761-0.392,0.999
					c-0.695,0.633-1.53,0.477-2.374,0.413c-0.998-0.075-2.026-0.362-2.99-0.704c-0.655-0.233-1.358-0.573-1.692-1.266
					C399.145,258.566,399.094,258.408,399.107,258.253z"/>
				<path style="fill:#04061B;" d="M399.951,265.459c0.306,1.011,1.373,1.583,2.384,1.278c1.011-0.306,1.583-1.373,1.278-2.384
					c-0.306-1.011-1.373-1.583-2.384-1.278C400.218,263.381,399.645,264.448,399.951,265.459z"/>
				<path style="fill:#EFAE95;" d="M406.9,271.687c0.145-0.366,0.23-0.767,0.162-1.155c-0.171-0.975-1.22-1.547-2.196-1.714
					c-1.314-0.224-3.71,0.131-5.455,0.936c0.269,1.761,0.564,3.457,0.884,5.043c0.713,0.114,1.413,0.122,1.94,0.011
					C404.146,274.406,406.179,273.5,406.9,271.687z"/>
				<path style="fill:none;stroke:#EFAE95;stroke-width:2;stroke-miterlimit:10;" d="M404.339,285.868
					c2.171,1.219,1.264-5.696,1.01-6.616"/>
				<g>
					<path style="fill:#EFB59E;" d="M422.994,261.125c1.068-0.539,2.281-0.812,3.472-0.706c2.18,0.194,4.164,1.719,4.997,3.743
						c0.833,2.023,0.52,4.454-0.722,6.256c-1.242,1.801-3.353,2.948-5.536,3.103c-0.724,0.052-1.467-0.002-2.144-0.264
						c-2.1-0.812-3.405-3.743-3.71-5.861C418.99,264.884,420.832,262.216,422.994,261.125z"/>
					<path style="fill:#EFAE95;" d="M419.602,268.56c0.365-0.926,0.922-1.788,1.568-2.502c0.962-1.063,2.32-2.031,3.828-1.875
						c1.818,0.189,3.239,1.899,2.727,3.713c-0.903,3.199-4.299,3.951-7.119,3.042C420.162,270.19,419.825,269.357,419.602,268.56z"
						/>
					<path style="fill:#D69580;" d="M424.109,264.345c-0.009-0.007-0.017-0.014-0.024-0.022c-0.001-0.001-0.002-0.003-0.003-0.004
						c-0.041-0.046-0.065-0.108-0.056-0.183c0.071-0.591,1.288-0.632,1.726-0.635c1.008-0.009,1.926,0.698,2.357,1.583
						c0.056,0.116-0.114,0.199-0.19,0.108c-0.427-0.514-1.39-1.127-2.06-1.143c-0.238-0.006-1.215,0.033-1.375,0.257
						c-0.087,0.121-0.247,0.127-0.354,0.056c0.001,0.002,0.002,0.004,0.003,0.006C424.123,264.359,424.117,264.351,424.109,264.345z
						"/>
					<path style="fill:#D69580;" d="M424.614,268.401c-0.284-0.708-0.315-1.453-0.017-2.161c0.064-0.152,0.292-0.05,0.261,0.1
						c-0.116,0.559,0.045,1.345,0.267,1.863c0.187,0.438,0.351,0.89,0.745,1.176c0.169,0.122,0.339,0.195,0.462,0.366
						c0.096,0.134-0.017,0.325-0.173,0.329C425.269,270.098,424.886,269.08,424.614,268.401z"/>
				</g>
			</g>
			<g>
				<path style="fill:#FF97D3;" d="M502.298,457.266h44.968c1.263-5.049,4.463-8.921,7.833-12.887
					c6.089-7.164,10.538-15.713,12.914-24.81c0.449-1.72,0.806-3.628-0.007-5.208c-1.215-2.362-4.337-2.838-6.503-4.375
					c-4.807-3.41-3.627-11.214,0.206-15.691c3.833-4.478,9.433-7.049,13.719-11.096c4.286-4.046,7.083-11.002,3.585-15.746
					c-2.98-4.043-8.906-4.356-13.851-3.475c-3.152,0.562-6.897,1.282-9.147-0.996c-3.394-3.435,0.314-8.962,3.53-12.565
					c10.462-11.721,16.595-27.22,16.987-42.926c0.112-4.5-0.293-9.214-2.659-13.044c-3.667-5.936-11.347-8.368-18.298-7.765
					c-15.079,1.31-26.946,14.575-31.431,29.031c-4.485,14.456-3.118,29.992-1.72,45.064c0.265,2.853,0.514,5.822-0.499,8.502
					c-1.013,2.68-3.693,4.963-6.525,4.53c-3.131-0.479-4.902-3.767-7.448-5.652c-4.107-3.04-10.725-1.712-13.342,2.676
					c-3.956,6.634,1.395,14.625,4.436,21.725c2.026,4.731,3.026,9.899,2.911,15.044c-0.029,1.288-0.136,2.611-0.705,3.767
					c-3.113,6.323-13.522,0.747-19.655,4.22c-3.306,1.872-4.58,6.18-4.008,9.936c0.572,3.756,2.613,7.102,4.61,10.335
					C487.706,444.774,493.43,451.688,502.298,457.266z"/>
				<g>
					<path style="fill:#31177A;" d="M522.729,455.942c-0.431,0-0.781-0.348-0.782-0.78c-0.11-33.082,7.567-65.701,14.99-97.247
						c4.907-20.85,10.469-44.482,24.236-63.024c0.258-0.347,0.747-0.419,1.095-0.162c0.347,0.258,0.42,0.747,0.162,1.094
						c-13.574,18.282-19.096,41.748-23.969,62.451c-7.404,31.457-15.059,63.984-14.949,96.883c0.001,0.432-0.348,0.783-0.78,0.785
						C522.731,455.942,522.73,455.942,522.729,455.942z"/>
				</g>
				<g>
					<path style="fill:#31177A;" d="M509.507,388.543c-0.244,0-0.485-0.114-0.638-0.328c-3.354-4.697-6.519-9.616-9.407-14.621
						c-0.216-0.375-0.087-0.853,0.287-1.069c0.374-0.216,0.853-0.087,1.069,0.287c2.863,4.961,6.001,9.838,9.326,14.494
						c0.251,0.352,0.17,0.841-0.182,1.091C509.823,388.496,509.665,388.543,509.507,388.543z"/>
				</g>
				<g>
					<path style="fill:#31177A;" d="M525.607,418.349c-0.313,0-0.609-0.189-0.729-0.498c-3.609-9.268-8.538-17.945-14.649-25.791
						c-0.266-0.341-0.204-0.832,0.136-1.098c0.341-0.264,0.832-0.205,1.099,0.137c6.205,7.965,11.208,16.774,14.873,26.183
						c0.157,0.403-0.042,0.857-0.445,1.013C525.798,418.332,525.702,418.349,525.607,418.349z"/>
				</g>
				<g>
					<path style="fill:#31177A;" d="M520.393,457.445c-0.23,0-0.458-0.101-0.612-0.295c-10.408-13.051-22.35-24.888-35.494-35.182
						c-0.34-0.266-0.4-0.758-0.133-1.098c0.267-0.34,0.758-0.4,1.099-0.134c13.24,10.369,25.269,22.292,35.753,35.439
						c0.269,0.338,0.214,0.83-0.124,1.1C520.737,457.39,520.565,457.445,520.393,457.445z"/>
				</g>
				<g>
					<path style="fill:#31177A;" d="M523.93,439.79c-0.099,0-0.2-0.018-0.297-0.059c-0.4-0.163-0.591-0.62-0.427-1.021
						c11.34-27.646,28.84-49.29,53.497-66.17c0.357-0.244,0.844-0.153,1.088,0.204c0.244,0.356,0.153,0.844-0.204,1.087
						c-24.398,16.702-41.712,38.119-52.933,65.474C524.53,439.607,524.238,439.79,523.93,439.79z"/>
				</g>
				<g>
					<path style="fill:#31177A;" d="M539.764,350.224c-0.079,0-0.159-0.012-0.238-0.037c-0.412-0.131-0.64-0.572-0.509-0.983
						c2.064-6.484,6.501-15.075,12.767-19.742c0.346-0.259,0.836-0.187,1.095,0.16c0.258,0.347,0.187,0.837-0.16,1.095
						c-5.968,4.446-10.22,12.711-12.21,18.963C540.403,350.012,540.095,350.224,539.764,350.224z"/>
				</g>
				<g>
					<path style="fill:#31177A;" d="M522.771,456.727c-0.167,0-0.335-0.053-0.477-0.162c-0.342-0.264-0.406-0.755-0.143-1.097
						c6.753-8.779,14.137-17.21,21.947-25.059c0.305-0.306,0.8-0.308,1.107-0.003c0.306,0.305,0.308,0.8,0.003,1.107
						c-7.764,7.802-15.104,16.182-21.817,24.909C523.237,456.622,523.005,456.727,522.771,456.727z"/>
				</g>
				<g>
					<path style="fill:#31177A;" d="M548.92,427.496c-0.209,0-0.419-0.084-0.573-0.249c-0.295-0.316-0.277-0.811,0.04-1.106
						l7.555-7.033c0.316-0.294,0.811-0.277,1.106,0.039c0.295,0.316,0.277,0.811-0.04,1.106l-7.554,7.033
						C549.303,427.427,549.111,427.496,548.92,427.496z"/>
				</g>
			</g>
			<g>
				<path style="fill:#6A59E3;" d="M428.481,457.21c-11.69-7.774-19.818-20.047-24.96-33.11c-5.142-13.063-7.554-27.014-9.87-40.86
					c7.932,1.9,15.875,3.916,23.395,7.077c7.519,3.161,14.648,7.527,20.13,13.567c6.57,7.239,10.469,16.519,13.167,25.916
					c2.038,7.097,3.088,14.392,3.874,21.734L428.481,457.21z"/>
				<g>
					<path style="fill:#31177A;" d="M433.482,457.112c-0.432-1.089-0.771-2.24-1.024-3.439
						c-7.467-24.18-21.195-48.353-38.905-68.418c-0.333-0.377-0.297-0.952,0.08-1.284c0.377-0.333,0.952-0.296,1.284,0.08
						c16.199,18.354,29.099,40.116,36.99,62.209c0.453-11.083,5.913-23.853,12.643-31.356c0.335-0.373,0.91-0.407,1.284-0.069
						c0.374,0.335,0.406,0.91,0.07,1.284c-7.972,8.887-14.034,25.724-11.665,37.159c0.334,1.085,0.655,2.167,0.963,3.251
						L433.482,457.112z"/>
				</g>
				<g>
					<path style="fill:#31177A;" d="M424.666,432.005c-0.438,0-0.823-0.316-0.897-0.761c-1.536-9.307-0.564-23.419,7.231-32.557
						c0.326-0.384,0.899-0.429,1.282-0.102c0.382,0.326,0.428,0.9,0.102,1.282c-6.916,8.109-8.408,21.454-6.819,31.081
						c0.082,0.496-0.254,0.964-0.75,1.046C424.765,432.002,424.715,432.005,424.666,432.005z"/>
				</g>
				<g>
					<path style="fill:#31177A;" d="M419.345,391.177c-0.155,0.046-0.302,0.119-0.419,0.248c-1.389,1.543-2.958,3.366-3.991,5.482
						c-1.535,3.144-1.764,6.694-1.803,9.092c-0.025,1.587,0.466,3.418,0.943,5.189c0.302,1.125,0.587,2.187,0.715,3.095
						c0.064,0.455,0.453,0.783,0.899,0.783c0.043,0,0.085-0.003,0.128-0.009c0.497-0.07,0.844-0.53,0.774-1.028
						c-0.144-1.018-0.443-2.133-0.76-3.312c-0.443-1.65-0.901-3.356-0.88-4.688c0.036-2.224,0.243-5.507,1.619-8.324
						c0.93-1.904,2.341-3.545,3.708-5.063c0.283-0.314,0.291-0.762,0.07-1.099C420.008,391.431,419.671,391.315,419.345,391.177z"/>
				</g>
				<g>
					<path style="fill:#31177A;" d="M406.664,397.219c-0.908-3.536-0.553-7.398,0.939-10.733h-0.061
						c-0.635-0.002-1.257-0.055-1.867-0.147c-1.438,3.566-1.728,7.614-0.773,11.333c0.008,0.032,0.972,3.319,1.495,3.809
						c0.176,0.163,0.399,0.245,0.622,0.245c0.242,0,0.485-0.097,0.664-0.288c0.31-0.332,0.325-0.834,0.053-1.181
						C407.499,399.811,406.747,397.539,406.664,397.219z"/>
					<path style="fill:#31177A;" d="M407.64,400.151c0,0.001,0.001,0.002,0.002,0.002
						C407.641,400.153,407.641,400.152,407.64,400.151z"/>
				</g>
				<g>
					<path style="fill:#31177A;" d="M440.778,454.479c-0.043,0-0.085-0.003-0.128-0.009c-0.497-0.07-0.844-0.53-0.774-1.028
						c1.08-7.648,4.568-14.979,9.822-20.641c0.342-0.369,0.918-0.391,1.285-0.049c0.368,0.342,0.39,0.918,0.048,1.285
						c-5.003,5.394-8.325,12.375-9.354,19.659C441.613,454.151,441.224,454.479,440.778,454.479z"/>
				</g>
				<g>
					<path style="fill:#31177A;" d="M426.279,436.572c-0.162,0-0.326-0.043-0.474-0.133c-6.251-3.821-13.727-5.851-21.054-5.723
						c-0.496-0.036-0.917-0.391-0.926-0.894c-0.009-0.502,0.391-0.917,0.893-0.926c7.681-0.159,15.493,1.99,22.035,5.99
						c0.429,0.262,0.564,0.823,0.302,1.251C426.884,436.417,426.585,436.572,426.279,436.572z"/>
				</g>
				<g>
					<path style="fill:#31177A;" d="M420.798,424.199c-0.077,0-0.156-0.01-0.235-0.031c-0.387-0.103-0.649-0.441-0.673-0.82
						c-0.145-0.171-0.597-0.562-2-1.356l-0.145-0.082c-5.339-3.055-11.382-6.511-17.891-6.511c-0.087,0-0.174,0-0.261,0.002
						c-0.529-0.023-0.915-0.394-0.923-0.896c-0.007-0.503,0.394-0.916,0.897-0.923c0.093-0.001,0.186-0.002,0.279-0.002
						c7.001,0,13.536,3.739,18.802,6.751l0.137,0.077c1.704,0.964,3.208,1.927,2.891,3.115
						C421.568,423.931,421.2,424.199,420.798,424.199z"/>
				</g>
			</g>
			<g>
				<path style="fill:#B5C1FB;" d="M466.511,454.68c8.587-6.073,14.41-15.439,17.979-25.332c3.569-9.893,5.076-20.392,6.512-30.811
					c-5.899,1.594-11.804,3.274-17.367,5.803c-5.563,2.529-10.808,5.952-14.783,10.593c-4.764,5.562-7.484,12.596-9.302,19.691
					c-1.373,5.359-2.003,10.844-2.434,16.359L466.511,454.68z"/>
				<path style="fill:#31177A;" d="M491.459,399.336c0.36-0.35,0.369-0.926,0.019-1.286c-0.349-0.361-0.926-0.369-1.286-0.02
					c-2.421,2.351-4.752,4.801-7.007,7.322c0.308-1.484,0.481-2.995,0.499-4.525c0.006-0.503-0.396-0.915-0.898-0.921
					c-0.004,0-0.008,0-0.012,0c-0.497,0-0.903,0.4-0.909,0.898c-0.033,2.706-0.56,5.351-1.565,7.862
					c-0.002,0.004-0.001,0.008-0.002,0.012c-3.035,3.607-5.9,7.361-8.578,11.248c0.377-4.585,0.271-9.837-1.232-13.408
					c-0.195-0.464-0.728-0.679-1.192-0.486c-0.463,0.195-0.68,0.728-0.485,1.191c1.591,3.778,1.514,10.392,0.719,15.972
					c-2.45,3.765-4.724,7.643-6.818,11.612c0.719-6.724,0.164-15.015-2.312-21.259c-0.185-0.467-0.712-0.696-1.181-0.511
					c-0.467,0.186-0.696,0.714-0.51,1.181c3.219,8.118,3.049,19.869,1.026,26.539c-0.001,0.003,0,0.005-0.001,0.008
					c-1.556,3.304-2.995,6.659-4.293,10.064c-0.179,0.47,0.057,0.995,0.526,1.174c0.107,0.041,0.216,0.06,0.324,0.06
					c0.366,0,0.712-0.223,0.85-0.585c0.454-1.193,0.927-2.379,1.414-3.56c0.189-0.047,0.37-0.133,0.5-0.299
					c1.549-1.971,5.635-6.695,10.119-7.982c3.889-1.116,7.885-1.409,12.33-1.652c0.501-0.027,0.886-0.456,0.858-0.958
					c-0.028-0.502-0.467-0.919-0.958-0.858c-4.389,0.24-8.666,0.552-12.732,1.72c-3.048,0.875-5.838,3.041-7.998,5.178
					c1.855-4.062,3.9-8.042,6.127-11.922c0.048-0.042,0.105-0.068,0.145-0.12c5-6.686,12.95-11.119,21.267-11.857
					c0.501-0.044,0.87-0.486,0.826-0.986s-0.477-0.871-0.986-0.826c-6.093,0.54-11.999,2.951-16.819,6.727
					c0.012-0.076,0.023-0.152,0.035-0.23C477.086,414.964,483.869,406.706,491.459,399.336z"/>
			</g>
		</g>
		<g style="clip-path:url(#SVGID_00000033370992681769040310000003808299102625465248_);">
			<path style="fill:#31177A;" d="M225.679,298.141c-0.327,0-0.643-0.177-0.806-0.486c-6.783-12.897-6.24-29.43,1.661-50.543
				c0.589-1.575,1.2-3.145,1.81-4.714c1.861-4.784,3.786-9.732,5.039-14.763c3.685-14.788,2.216-31.504-4.621-52.606
				c-0.155-0.478,0.107-0.991,0.585-1.145c0.477-0.155,0.991,0.107,1.145,0.585c6.947,21.439,8.427,38.473,4.656,53.607
				c-1.282,5.143-3.227,10.145-5.109,14.983c-0.608,1.562-1.215,3.124-1.802,4.692c-7.708,20.599-8.282,36.647-1.754,49.058
				c0.234,0.445,0.063,0.995-0.382,1.228C225.966,298.108,225.821,298.141,225.679,298.141z"/>
		</g>
	</g>
</g>
<g id="DESIGNED_BY_FREEPIK">
	<g>
		<g id="XMLID_30_">
			<g id="XMLID_49_">
				<path id="XMLID_57_" style="fill:#1D262D;" d="M385.104,473.067c-0.432,0.443-0.803,0.931-1.108,1.453l-0.465-0.241
					c-0.067-0.298-0.349-0.503-0.659-0.466c-0.331,0.039-0.568,0.339-0.529,0.67c0.039,0.331,0.339,0.568,0.67,0.529
					c0.066-0.008,0.127-0.026,0.184-0.052l0.451,0.234c-0.251,0.554-0.433,1.139-0.539,1.744l0.746,0.132
					c0.23-1.306,0.85-2.507,1.792-3.473L385.104,473.067z"/>
				<path id="XMLID_56_" style="fill:#1D262D;" d="M390.592,470.765c-0.171,0-0.341,0.006-0.51,0.017l-0.074-0.626
					c0.188-0.149,0.296-0.389,0.266-0.645c-0.046-0.393-0.402-0.674-0.795-0.628c-0.393,0.046-0.674,0.402-0.628,0.795
					c0.03,0.254,0.189,0.461,0.404,0.564l0.074,0.624c-0.714,0.116-1.403,0.332-2.06,0.646l0.327,0.684
					c0.934-0.447,1.942-0.673,2.995-0.673c0.496,0,0.993,0.053,1.475,0.158l0.161-0.741
					C391.692,470.823,391.142,470.765,390.592,470.765z"/>
				<path id="XMLID_55_" style="fill:#1D262D;" d="M397.194,473.312c0.331-0.04,0.566-0.341,0.526-0.672
					c-0.04-0.331-0.341-0.566-0.672-0.526c-0.309,0.038-0.535,0.304-0.53,0.609l-0.416,0.363c-0.418-0.43-0.889-0.813-1.408-1.139
					l-0.404,0.641c1.134,0.715,2.021,1.726,2.563,2.925l0.69-0.313c-0.251-0.554-0.567-1.072-0.942-1.545l0.402-0.351
					C397.065,473.317,397.129,473.32,397.194,473.312z"/>
				<path id="XMLID_54_" style="fill:#1D262D;" d="M390.044,480.973c-0.386,0.023-0.775,0.035-1.157,0.035
					c-0.88,0-1.733-0.061-2.478-0.179c-0.39-0.062-0.846-0.155-1.27-0.292c1.046,1.861,3.069,3.125,5.388,3.125
					c2.855,0,5.262-1.916,5.95-4.504c-0.682,0.449-1.505,0.825-2.459,1.123C392.839,480.648,391.463,480.888,390.044,480.973z"/>
				<path id="XMLID_50_" style="fill:#1D262D;" d="M390.592,472.281c-3.352,0-6.08,2.666-6.08,5.944
					c0,0.425,0.046,0.849,0.137,1.261c0.673,0.483,2.706,0.89,5.348,0.731c2.879-0.173,5.297-0.957,6.672-2.158
					c-0.006-0.195-0.021-0.39-0.045-0.582C396.244,474.514,393.65,472.281,390.592,472.281z M388.432,478.796
					c-1.02,0-1.85-0.83-1.85-1.85c0-1.02,0.83-1.85,1.85-1.85c1.02,0,1.85,0.83,1.85,1.85
					C390.282,477.966,389.452,478.796,388.432,478.796z M393.17,477.887c-0.75,0-1.36-0.61-1.36-1.36s0.61-1.361,1.36-1.361
					c0.75,0,1.361,0.61,1.361,1.361S393.92,477.887,393.17,477.887z"/>
			</g>
			<path id="XMLID_47_" style="fill:#1D262D;" d="M406.595,474.148c-0.295-0.116-0.805-0.309-1.382-0.237
				c-0.551,0.068-0.844,0.34-0.844,1.007v0.866h2.228v1.717h-2.228v5.455h-1.932V477.5h-1.34v-1.717h1.34v-0.888
				c0-1.68,0.896-2.783,2.568-2.783c0.643,0,1.157,0.122,1.59,0.308L406.595,474.148z"/>
			<path id="XMLID_45_" style="fill:#1D262D;" d="M411.298,477.48c-0.177-0.03-0.358-0.046-0.526-0.046
				c-0.895,0-1.51,0.548-1.51,1.614v3.908h-1.932v-7.172h1.873v0.785c0.451-0.673,1.14-0.977,2.021-0.977
				c0.414,0,0.848,0.128,1.094,0.337L411.298,477.48z"/>
			<path id="XMLID_42_" style="fill:#1D262D;" d="M418.965,479.358c0,0.222-0.015,0.489-0.037,0.651h-5.085
				c0.207,1.036,0.933,1.488,1.843,1.488c0.622,0,1.295-0.252,1.813-0.688l1.133,1.243c-0.814,0.748-1.85,1.088-3.057,1.088
				c-2.198,0-3.723-1.495-3.723-3.753c0-2.258,1.48-3.797,3.627-3.797C417.544,475.591,418.958,477.123,418.965,479.358z
				 M413.851,478.692h3.175c-0.177-0.918-0.733-1.436-1.562-1.436C414.554,477.256,414.021,477.804,413.851,478.692z"/>
			<path id="XMLID_39_" style="fill:#1D262D;" d="M426.618,479.358c0,0.222-0.015,0.489-0.037,0.651h-5.085
				c0.207,1.036,0.932,1.488,1.843,1.488c0.622,0,1.295-0.252,1.814-0.688l1.132,1.243c-0.814,0.748-1.85,1.088-3.057,1.088
				c-2.198,0-3.723-1.495-3.723-3.753c0-2.258,1.48-3.797,3.627-3.797C425.197,475.591,426.611,477.123,426.618,479.358z
				 M421.504,478.692h3.175c-0.178-0.918-0.733-1.436-1.562-1.436C422.207,477.256,421.674,477.804,421.504,478.692z"/>
			<path id="XMLID_36_" style="fill:#1D262D;" d="M434.964,479.366c0,2.154-1.495,3.775-3.471,3.775
				c-0.962,0-1.643-0.378-2.109-0.933v3.708h-1.924v-10.133h1.887v0.792c0.466-0.585,1.155-0.984,2.139-0.984
				C433.469,475.591,434.964,477.212,434.964,479.366z M429.287,479.366c0,1.132,0.747,1.976,1.843,1.976
				c1.14,0,1.85-0.881,1.85-1.976c0-1.095-0.711-1.976-1.85-1.976C430.035,477.389,429.287,478.233,429.287,479.366z"/>
			<path id="XMLID_33_" style="fill:#1D262D;" d="M438.067,473.437c0,0.696-0.54,1.229-1.236,1.229
				c-0.696,0-1.229-0.533-1.229-1.229c0-0.696,0.533-1.243,1.229-1.243C437.527,472.194,438.067,472.741,438.067,473.437z
				 M437.809,482.955h-1.932v-7.172h1.932V482.955z"/>
			<path id="XMLID_31_" style="fill:#1D262D;" d="M441.032,478.337l2.702-2.554h2.368l-3.479,3.375l3.501,3.797h-2.376l-2.716-2.901
				v2.901H439.1v-10.658h1.932V478.337z"/>
		</g>
		<g>
			<path style="fill:#1D262D;" d="M309.412,482.89v-1.055c-0.527,0.718-1.391,1.23-2.387,1.23c-1.846,0-3.149-1.406-3.149-3.706
				c0-2.256,1.289-3.721,3.149-3.721c0.952,0,1.816,0.469,2.387,1.245v-3.765h1.099v9.77H309.412z M309.412,480.971v-3.208
				c-0.395-0.615-1.245-1.143-2.124-1.143c-1.421,0-2.27,1.172-2.27,2.739c0,1.567,0.85,2.724,2.27,2.724
				C308.168,482.085,309.017,481.587,309.412,480.971z"/>
			<path style="fill:#1D262D;" d="M311.932,479.345c0-2.051,1.465-3.706,3.486-3.706c2.139,0,3.398,1.67,3.398,3.794v0.279h-5.727
				c0.088,1.333,1.025,2.446,2.549,2.446c0.806,0,1.626-0.322,2.182-0.893l0.527,0.718c-0.703,0.703-1.655,1.084-2.812,1.084
				C313.44,483.066,311.932,481.557,311.932,479.345z M315.403,476.548c-1.509,0-2.256,1.274-2.314,2.358h4.643
				C317.718,477.851,317.014,476.548,315.403,476.548z"/>
			<path style="fill:#1D262D;" d="M319.607,481.953l0.571-0.791c0.469,0.542,1.362,1.011,2.329,1.011c1.084,0,1.67-0.513,1.67-1.216
				c0-1.714-4.38-0.659-4.38-3.281c0-1.098,0.952-2.036,2.636-2.036c1.201,0,2.051,0.454,2.622,1.026l-0.513,0.762
				c-0.424-0.513-1.201-0.894-2.109-0.894c-0.967,0-1.567,0.483-1.567,1.113c0,1.552,4.38,0.527,4.38,3.281
				c0,1.187-0.952,2.138-2.783,2.138C321.306,483.066,320.324,482.714,319.607,481.953z"/>
			<path style="fill:#1D262D;" d="M326.477,474.072c0-0.41,0.337-0.747,0.732-0.747c0.41,0,0.747,0.337,0.747,0.747
				c0,0.41-0.337,0.732-0.747,0.732C326.814,474.804,326.477,474.482,326.477,474.072z M326.667,482.89v-7.075h1.099v7.075H326.667z
				"/>
			<path style="fill:#1D262D;" d="M329.582,484.707l0.556-0.82c0.586,0.703,1.289,0.967,2.3,0.967c1.172,0,2.27-0.571,2.27-2.124
				v-1.011c-0.513,0.718-1.377,1.26-2.373,1.26c-1.845,0-3.149-1.377-3.149-3.662c0-2.27,1.289-3.677,3.149-3.677
				c0.952,0,1.802,0.469,2.373,1.245v-1.069h1.099v6.87c0,2.344-1.641,3.076-3.369,3.076
				C331.237,485.761,330.417,485.527,329.582,484.707z M334.709,480.854v-3.091c-0.381-0.615-1.23-1.143-2.109-1.143
				c-1.421,0-2.27,1.128-2.27,2.695c0,1.553,0.849,2.695,2.27,2.695C333.478,482.011,334.328,481.47,334.709,480.854z"/>
			<path style="fill:#1D262D;" d="M342.413,482.89v-4.629c0-1.245-0.63-1.641-1.582-1.641c-0.865,0-1.685,0.527-2.095,1.099v5.17
				h-1.099v-7.075h1.099v1.025c0.498-0.586,1.465-1.201,2.519-1.201c1.48,0,2.256,0.747,2.256,2.285v4.966H342.413z"/>
			<path style="fill:#1D262D;" d="M344.932,479.345c0-2.051,1.465-3.706,3.486-3.706c2.138,0,3.398,1.67,3.398,3.794v0.279h-5.727
				c0.088,1.333,1.025,2.446,2.549,2.446c0.806,0,1.626-0.322,2.183-0.893l0.527,0.718c-0.703,0.703-1.655,1.084-2.812,1.084
				C346.441,483.066,344.932,481.557,344.932,479.345z M348.404,476.548c-1.509,0-2.256,1.274-2.314,2.358h4.643
				C350.718,477.851,350.015,476.548,348.404,476.548z"/>
			<path style="fill:#1D262D;" d="M358.35,482.89v-1.055c-0.527,0.718-1.392,1.23-2.388,1.23c-1.846,0-3.149-1.406-3.149-3.706
				c0-2.256,1.289-3.721,3.149-3.721c0.952,0,1.817,0.469,2.388,1.245v-3.765h1.098v9.77H358.35z M358.35,480.971v-3.208
				c-0.396-0.615-1.245-1.143-2.124-1.143c-1.421,0-2.27,1.172-2.27,2.739c0,1.567,0.849,2.724,2.27,2.724
				C357.105,482.085,357.954,481.587,358.35,480.971z"/>
			<path style="fill:#1D262D;" d="M364.692,482.89v-9.77h1.098v3.765c0.572-0.776,1.421-1.245,2.388-1.245
				c1.845,0,3.149,1.465,3.149,3.721c0,2.299-1.304,3.706-3.149,3.706c-0.996,0-1.86-0.513-2.388-1.23v1.055H364.692z
				 M367.9,482.085c1.436,0,2.285-1.157,2.285-2.724c0-1.568-0.85-2.739-2.285-2.739c-0.864,0-1.728,0.527-2.109,1.143v3.208
				C366.171,481.587,367.036,482.085,367.9,482.085z"/>
			<path style="fill:#1D262D;" d="M372.528,484.663c0.161,0.073,0.425,0.117,0.601,0.117c0.483,0,0.806-0.161,1.055-0.747
				l0.469-1.069l-2.959-7.148h1.187l2.358,5.801l2.344-5.801h1.201l-3.545,8.51c-0.425,1.025-1.143,1.421-2.08,1.435
				c-0.234,0-0.601-0.044-0.806-0.103L372.528,484.663z"/>
		</g>
	</g>
</g>
</svg>
